<?xml version="1.0" encoding="utf-8"?>
<!-- Generator: Adobe Illustrator 24.0.1, SVG Export Plug-In . SVG Version: 6.00 Build 0)  -->
<svg version="1.1" id="Layer_1" xmlns="http://www.w3.org/2000/svg" xmlns:xlink="http://www.w3.org/1999/xlink" x="0px" y="0px"
	 viewBox="0 0 1000 293.1" style="enable-background:new 0 0 1000 293.1;" xml:space="preserve">
<style type="text/css">
	.st0{fill:#4ACE10;}
</style>
<g>
	<path class="st0" d="M683.5,252.3c0.4-5.3-1.1-9.9-3.9-14.2c-2.9-4.4-4.4-9.2-2.2-14.5l0.3-1.2c1.3-4.8,0.7-9.2-2.8-12.8
		c-2.6-2.8-3.4-5.9-2.6-9.5c1-4.8,0.7-9.2-2.2-13.5c-2.5-3.7-2.9-7.8-0.9-12.2c1.7-3.7,2.8-7.7,3.8-11.6c0.8-3.1,0.8-6.3-0.3-9.3
		c-0.9-2.4-0.7-4.6-0.1-7c0.6-2.5,1-5.1,1.3-7.7c0.3-2-0.4-3.7-1.9-5.1c-1.9-1.8-2.6-4-2.3-6.5c0.4-2.9,0.9-5.8-0.6-8.6
		c-0.3-0.5-0.1-1.2-0.1-1.9c0.4-5-0.9-9.7-2.9-14.3c-1.1-2.6-1.6-5.4-1.3-8.3c0.6-5.6,0.2-11.1-0.7-16.6c-1-5.9-2.7-11.6-3.9-17.4
		c-0.4-2-0.7-4.1-0.6-6.2c0.3-4.2,0.8-8.3,1.3-12.5c0.7-5,1.9-9.8,4.1-14.4c2.1-4.5,4-9,5.9-13.5c0.7-1.6,1.3-3.3,1.7-5.1
		c0.5-2.1,0.5-4.2-0.8-6.1c-1.7-2.5-3.9-3-6.1-0.9c-1.8,1.7-3.5,3.7-4.7,5.9c-2.3,4.2-5,8.2-8.3,11.8c-2.3,2.5-3.2,5.5-3.4,8.9
		c-0.3,6.6-1.8,12.8-6.6,17.8c-1.4,1.4-2.6,3-3.7,4.7c-1.1,1.6-2.3,3.3-2.9,5.2c-1.5,4.3-3.1,8.7-3.9,13.2c-1,6-2.6,11.8-4.2,17.7
		c-1.3,4.9-3.6,8.9-7,12.4c-2.2,2.2-3.7,4.9-4.6,7.8c-1.1,3.5-2.1,7-3.1,10.5c-0.4,1.6-0.7,3.3-0.9,4.9c-0.7,7.9-1.3,15.8-2.1,23.7
		c-0.2,1.9,0,4-1.3,5.7l-0.6-0.5c-2.1-2.9-2.3-6.2-2.6-9.5c-0.7-7.9-1.5-15.8-1.2-23.8c0.1-2.4,0-4.8,0.1-7.2c0.1-2-0.8-3.4-2.2-4.6
		c-0.6-0.4-1.2-0.9-1.8-1.3c0.1-1.5,0.2-2.9,0.4-4.4c0.3-3.5-0.2-6.8-2.5-9.8c-0.8-1-1.2-2.7-1.2-4.1c0-3.5,0.4-7.1,0.6-10.6
		c0.2-2.9-0.8-5.3-2.9-7.3c-0.5-0.5-1.2-0.9-1.6-1.5c-0.6-0.9-1.4-2-1.4-3c0.2-3.4,0.5-6.9,1.1-10.2c0.5-2.6,1.7-5.2,2.5-7.8
		c1.4-4.7,2.8-9.4,3.9-14.2c0.5-2.4-0.7-4.2-2.7-5.1c-2-0.9-3.6-0.7-5.2,1.5c-2.7,3.7-5.3,7.5-7.6,11.5c-1,1.8-1.4,3.9-1.9,5.9
		c-0.8,3.4-1.6,6.8-4.1,9.3c-2.7,2.8-4.2,6.2-5.2,9.9c-0.2,0.6-0.5,1.2-0.8,2.1c-1.7-4.4-2.4-4.8-6.1-4c-0.1-0.6-0.2-1.2-0.4-1.8
		c-1-2.5-3-2.9-4.8-0.9c-0.8,0.8-1.6,1.8-1.9,2.8c-1.4,3.9-2.9,7.9-4,11.9c-1.1,4-1.7,8.2-2.8,12.2c-2.4,8.9-4.1,17.9-8,26.4
		c-0.5,1-0.6,2.2-0.9,3.3c-1.1,6.1-0.9,12.1,0.3,18.1c1.5,7.2,1.4,14.3,0.3,21.5c-0.7,4.7-3.4,8.2-6.4,11.7
		c-4.7,5.4-6.7,11.7-6.1,18.9c0.3,3.5,1,6.8,2.4,10c2.4,5.5,3.3,11.2,1.1,17.1c-0.4,1-0.6,2-0.8,3c-0.3,2.6-0.4,5.1,0.7,7.7
		c0.7,1.5,1,3.2,1,4.8c0,6.4-0.1,12.8-0.1,19.2c0,1.1,0.2,2.3,0.5,3.4c0.4,1.6,1.4,2.9,3,3.3c1.8,0.4,3-0.8,3.9-2.1
		c1.7-2.3,2.9-4.9,3.2-7.8c0.5-5.2,2.2-10,4.2-14.7c0.9-2.2,1.3-4.6,1.4-7c0.3-4.6-0.7-9.2-1.7-13.7c-0.2-1.1-0.4-2.3-0.2-3.4
		c1-5.4,3-10.4,7.1-14c3.4-3,4.8-6.5,4.2-10.9c-0.1-1-0.1-2.1-0.3-3.1c-0.7-3.2-0.3-6.2,0.4-9.3c1-4.3,2-8.6,2.4-12.9
		c0.6-7.2,1.8-14.3,3.5-21.3c1.2-4.9,1.2-9.7-0.5-14.5c-1.7-4.7-1.5-9.4,0.1-14.2c0.8-2.4,1.3-4.9,2-7.2c0.9-2.6,1.5-5.4,3.9-8.1
		c0.2,1.5,0.5,2.5,0.4,3.5c-0.2,3.1-0.4,6.3-0.7,9.4c-0.4,4,0.5,7.5,4.1,9.9c1.6,1,2.4,2.5,2.7,4.4c0.3,1.9,1.2,3.6,2.8,4.3
		c3.8,1.7,4.4,5,4.8,8.5l0.1,0.9c0.7,6.3,1.8,12.4,5,18c1.3,2.3,1.4,5.2,2,7.8c0.4,1.7,0.2,3.6,0.9,5.2c1.3,3.2,1.1,6.3,0.8,9.6
		c-0.7,6.9,1.2,10.9,7.3,12.2c1.5,0.3,2.4,1.2,2.5,2.8c0.2,1.6,0.4,3.1,0.6,4.7c0.5,4.1,1.2,8.1,3.7,11.5c1.5,2,3.4,3.1,6,2.5
		c2.1-0.5,3.9-2.7,4.1-5.3c0.2-2.4,0.4-4.8,0.3-7.2c-0.4-6.5,1.5-12.4,4.6-18c0.9-1.6,1.6-3.5,1.8-5.3c0.5-3.3,0.6-6.7,0.7-10
		c0.2-6,1.3-11.7,6.1-15.9l0.6-0.7c4.4-6,6.8-12.4,5.3-20c-1.2-5.8-0.2-11.4,1.4-17c0.3-1.1,0.7-2.1,1.1-3.2
		c0.5,1.3,0.5,2.4,0.5,3.6c0,3.5,1.1,6.6,4.1,8.7c0.8,0.5,1.4,1.3,2,2c1.5,1.8,2.3,3.7,1.7,6.1c-0.6,2.2-1.2,4.4-1.9,6.6
		c-1.3,4.3-3.2,8.5-3.9,12.9c-0.9,6.2-0.6,12.5,1.8,18.6c0.5,1.2,1,2.6,1.1,3.9c0.2,3,0.2,6.1,0.1,9.1c-0.7,10.2,2.1,19.2,8.7,27.1
		c1.7,2,1.9,4.2,1.2,6.7c-0.9,3.5-1.4,7.1-1.7,10.8c-0.3,3.9,1.3,6.9,5.2,8.4l0.5,0.6c0,2,0,4.1,0,6.1c0,2.8,0.9,5.2,3,7
		c1.6,1.4,3.3,2.9,5.2,4c1.9,1.2,2.5,2.6,2.2,4.7c-0.3,2-0.4,4-0.5,5.9c-0.1,1.7,0.3,3.1,1.9,4c1.5,0.8,2.6-0.1,3.7-0.9l0.6,0
		l0.4,0.4c1.8,1.8,3,2.2,4.6,1.2c1.6-0.9,1.9-2.3,1.4-4.6C683.8,255.1,683.4,253.7,683.5,252.3"/>
	<path class="st0" d="M183.7,264.3c-0.6-3.9-2.2-7.4-5-10.3c-3.3-3.5-5.4-7.6-5.7-12.6c-0.4-5.7-3.6-9.4-8.8-11.4
		c-1.7-0.7-2.9-1.6-3.7-3.1c-1-1.8-2.1-3.6-2.9-5.6c-1-2.4-2.8-4.1-5.2-4.6c-2.8-0.6-4-2.3-4.7-4.8c-0.2-0.9-0.5-1.8-0.7-2.7
		c-0.9-6-4.2-10.4-9.4-13.4c-1.6-1-2.5-2.3-3.2-4c-1.6-3.4-3-7-5.3-9.9c-3.3-4.1-7.5-7.2-13.4-4.9l-0.7-0.2
		c-0.7-1.5-1.4-3.2-2.3-4.7c-2.2-3.7-3.6-4-7.3-1.9l-0.5,0c-0.3-0.7-0.7-1.4-1-2.1c-1.3-2.5-2.4-5.1-3.8-7.5c-1.3-2.2-2.8-4.1-5.9-4
		c-0.8,0-1.6-0.7-2.9-1.3c1.5-1.1,2.3-1.8,3.2-2.2c2.8-1.4,5-3.5,6.1-6.5c0.5-1.3,1.4-2.1,2.6-2.5c1.5-0.5,3-0.9,4.6-1
		c4.2-0.4,6.9-2.9,9-6.1c2.1-3.4,3.6-7.1,4.3-11.1c0.3-2.1,0.7-3.9,2.8-5.2c1-0.6,1.6-2.2,2-3.4c0.4-1.6,0.6-3.3,0.6-5
		c0-2.9,0.7-5.3,2.7-7.4c3.8-3.9,4.8-8.7,4-13.9c-0.7-4.3-1.2-8.4,0.4-12.7c1.9-5,0.7-9.5-3.6-12.9c-1.3-1-1.8-2.2-1.6-3.8
		c0.1-0.9,0.2-1.9,0.3-2.8c0.1-3.2,0.3-6.5,0.4-9.7c0-0.9-0.3-1.9-0.8-2.6c-3.7-5-6.7-6.5-12-4.6c-1.1,0.4-2.2,0.8-3.3,1
		c-1.8,0.3-2.5-0.3-2.7-2.1c-0.1-1.3-0.2-2.7-0.4-4c-0.6-2.8-2.2-4.1-5-4.3c-1-0.1-2.1,0-3.1,0.2c-3.2,0.6-5.9,0.1-8.4-2.1
		c-1.8-1.5-4-2.6-6.2-3.7c-3.7-1.9-7.5-3.7-11.2-5.6c-2.3-1.2-4.6-1.9-7.2-2c-1.2,0-2.5,0.1-3.8-0.1c-4.1-0.7-7.3,0.8-10.4,3.2
		c-3.5,2.7-7,5.3-10.6,7.8c-4.8,3.3-9.9,4.9-15.7,3.1L27,33c-2.4-0.7-4.5-0.1-6.7,0.9c-3.5,1.6-6.4,4-8.9,6.9
		C10,42.4,8.5,43.1,6.2,42c-2-0.9-3.2-0.5-4.1,1c-2.3,3.8-3.7,10,1,14.4c0.8,0.7,1.5,1.4,2.3,2.1c3.3,2.7,3.7,6.1,2.5,9.9
		c-0.5,1.7-1.1,3.4-1.4,5.1c-1.3,7.1-0.7,13.8,5.4,18.9c1.3,1.1,2.4,2.4,3.4,3.7c1.8,2.4,3.2,4.9,2.4,8.1c-0.6,2.4-0.9,4.9-1.5,7.3
		c-0.5,2-0.5,3.9,0.7,5.7c0.4,0.6,0.7,1.6,0.7,2.3c-0.2,2,0.2,3.7,1.1,5.5c0.9,1.9,1,3.7,0.4,5.8c-1,3.4-0.6,6.6,1.8,9.5
		c1,1.2,1.9,2.5,2.9,3.7c1.5,1.8,2.2,3.7,1.5,6.1c-0.8,2.7-0.4,5.3,0.8,7.9c2.6,5.5,4.3,11.4,4.3,17.5c0,3.5,0.3,7.1-1.7,10.3
		c-1.8,2.7-0.8,5.5,1,7.5c2.5,2.9,3.7,6.3,4.9,9.7c0.6,1.6,0.5,3-0.5,4.5c-2.8,4.3-2.9,9-1.8,13.9c0.8,3.4,2.3,6.5,4.2,9.4
		c1.3,2.1,2.3,4.2,2.7,6.6c0.3,2,1.1,3.8,2.7,5.1c0.5,0.4,1,1.2,1.1,1.8c0.3,3.4,1.1,6.8,0.2,10.3c-1,3.6-0.2,5.4,3.1,7.4
		c2.2,1.3,3,3.1,3.1,5.4c0.1,1.8,0,3.6,0.1,5.3c0.2,3.1,1.1,6,3.6,8.1c1.1,0.9,2.3,1.9,3.9,1.2c1.6-0.7,2.3-2.1,2.3-3.8
		c0-2,0-4-0.2-6c-0.2-3.5-0.1-6.7,3.4-8.7l0.5-0.4c3.7-3.7,4.1-7.6,1.5-12.1c-1.9-3.4-2.8-6.9-1.1-10.8c0.7-1.5,1.2-3.2,1.3-4.8
		c0.1-1.6,0-3.4-0.7-4.8c-1.3-2.7-3.1-5.2-4.8-7.7c-2.6-4-4.1-8-1.3-12.5l0.4-0.9c2.7-4.9,2.9-9.7-0.1-14.6c-0.9-1.5-1-2.9,0-4.4
		c1.9-2.7,1.5-5.5,0-8.3c-0.9-1.6-1.7-3.4-2.3-5.1c-1.2-3.4-0.1-5.4,3.9-6.8c1.6,1.7,3.3,3.7,5.1,5.6c2.7,2.8,6,3.9,9.7,2.8
		c2.8-0.8,4.4,0.4,5.8,2.4c1.4,2.2,2.7,4.5,4.1,6.7c1.2,1.7,2.5,3.4,4,4.8c1.6,1.5,2.8,1.3,4.4-0.2c2.9-2.8,3.5-2.9,6.3,0
		c1.5,1.6,3.2,2.7,5.5,2.5c1.7-0.2,2.8,0.5,3.5,2c1.5,3.2,3,6.4,4.4,9.7c1.7,4.1,4.4,5.4,8.4,3.7c0.6-0.2,1.1-0.5,1.7-0.8
		c2.3-0.9,2.5-1,3.8,1.2c1.6,2.7,3,5.5,4.4,8.3c1.8,3.8,4.7,6.3,8.7,7c2.4,0.4,3.7,1.6,4.7,3.5c0.5,1,1.1,2,1.6,3
		c2.3,4.8,5,9.2,10.5,11l1,0.7c2.7,1.9,5.3,3.8,5.4,7.6c0.2,3.7,1.7,7.1,3.1,10.5c0.9,2.3,2.3,4.2,4.6,5.4c1.8,1,3.1,2.4,3.8,4.4
		c0.7,1.9,1.5,3.7,2.4,5.5c1.2,2.5,3.5,4,5,3.6c1.6-0.4,2.5-2.2,2.4-5.3c0-1.3-0.7-2.8-0.3-4C185,270,184.1,267.2,183.7,264.3
		 M88.4,131.2c-0.6,0.4-1.5,0.6-2.2,0.8c-1.7,0.4-3.5,0.6-5.1,1.1c-1.9,0.6-3.7,1.4-5.5,2.4c-1.3,0.8-2.6,1.8-3.6,2.9
		c-1.4,1.7-3,2.9-5.2,3.8c-0.8-0.6-1.5-1.4-2.3-1.9c-3.7-2.5-5.9-2.7-8.9-0.5c-0.8,0.6-1.7,1-3.3,1.9c0.3-2,0.4-3.3,0.7-4.5
		c0.3-1.1,0.9-2.1,1.3-3.2c1.2-3.3,0.9-4.7-2.1-6.6c-1.2-0.8-1.7-1.7-1.7-3.1c0-2.1,0-4.2,0-6.3c0-3.1-1.2-5.4-4.1-6.8
		c-1.9-0.9-2.1-1.6-1.6-3.8c0.3-1.3,0.5-2.7,0.7-4c0.5-4.5-1.7-7.7-5.1-10.3c-0.6-0.5-1.1-1.3-1.1-2c0.1-3.2-1-6.4,0.3-9.6
		c0.8-2-0.5-3.7-1.9-5c-2.2-2-2.4-4.5-1.9-7.2c0.4-2.3,1.5-2.9,3.7-2.6c0.6,0.1,1.3,0.1,1.9,0.3c5.1,1.6,9.2-0.4,12.8-3.9
		c0.6-0.6,1.2-1.2,1.8-1.8c2-2,4.4-2.8,7.1-2.5c1.8,0.2,3.5,0.6,5.3,0.7c2.3,0.1,4.6,0,7.1,0c5,9.1,7.1,10.2,14.8,7.4
		c1.8,1.9,3.9,3.6,2.6,6.9c-0.6,1.5-0.1,3.1,1,4.4c1.5,1.8,3,3.5,4.6,5.1c1.1,1.1,2.5,2,3.7,3c-0.8,1.3-1.2,2.1-1.7,2.7
		c-1.9,2.7-2.2,4.6-0.2,6.9c2.8,3.2,1.3,6.5,1.2,9.9l-0.4,0.8c-2,2.2-4,4.5-6,6.7c-2,2.2-2.5,5-3,7.8c-0.3,1.6-0.4,3.3-0.6,5
		C91.2,128.1,90.3,130,88.4,131.2"/>
	<path class="st0" d="M997.9,129.1c-1.5-0.7-2.9-0.4-4.2,0.2c-3.5,1.5-7.1,3-10.6,4.7c-2.2,1.1-4.6,2.3-6.2,4.1
		c-5.2,5.5-12.8,7.5-18.4,12.4l-0.6,0.3c-5,2-10,4.4-15.1,6c-4.5,1.4-9.1,2.3-12.2,6.6c-0.1-1.1,0-2,0.3-2.9
		c0.9-2.5,0.5-4.7-0.8-6.9c-1-1.6-2.1-3.1-3.1-4.7c-0.5-0.8-1.1-1.7-1-2.5c0.1-2.1-0.9-3.5-2-5.1c-0.7-1-1.3-2.4-1.4-3.7
		c-0.2-6.5-0.2-13-0.3-19.4c-0.1-3.3-1.5-5.8-4.3-7.5c-0.8-0.5-1.8-1.4-2-2.3c-1.7-6.3-5.5-12-5.8-18.8c0-0.7-0.3-1.5-0.5-2.1
		c-2.1-5.4-4-10.8-6.3-16.1c-0.9-2.2-2.4-4.2-3.8-6.1c-0.5-0.7-1.9-1.6-2.5-1.4c-0.9,0.3-1.9,1.5-2.1,2.4c-0.3,1.7-0.1,3.5-0.1,5.3
		c0.2,5.4,0.4,10.8,0.6,16.3c-3.4,0.8-4.2,3-4,5.8c0.3,3.6,0.7,7.3,1.1,10.9c0.2,2.1,0.8,4.1,0.8,6.2c0.1,4.1,0,8.2,0,12.2
		c-0.1,4.6,0.7,9,2.6,13.1c1.6,3.5,2.7,7,2.8,10.8c0.1,2,0.2,4,0.1,6c-0.1,2,0.7,3.5,2.2,4.6c1,0.8,2.2,1.4,4,2.4
		c-1.4,4.9-2.6,10-4.2,15c-1.5,4.8-3.5,9.4-2.1,14.6c0.6,2.4-0.3,3.4-2.7,4.2c-1.5,0.5-3,0.8-4.5,1.4c-3.8,1.5-7.7,2.8-11.3,4.6
		c-3.1,1.6-3.3,3.5-1.1,6.3l0.5,0.7l-0.4,0.6c-0.7,0.4-1.4,0.9-2.2,1.2c-4.7,2.5-8.6,6-11.9,10c-2.3,2.7-2.3,4.6-0.5,7.4
		c2.2,3.3,2.1,4.3-0.7,6.9c-3.5,3.2-7.1,6.2-10.6,9.3c-1.6,1.4-3,2.9-3.7,4.9c-0.3,0.7-0.9,1.5-1.5,1.8c-3.8,1.4-6.2,4.2-8,7.6
		c-1.6,3-3.8,5.5-6.9,7.1c-1.7,0.9-3.5,1.4-5.1,2.3c-7.3,4.1-13.3,9.8-19.2,15.5c-1.4,1.3-2.2,3.3-3,5.1c-0.8,1.9-1.2,3.8,0.7,5.4
		c1.6,1.3,3.5,1.3,5.8,0l1.3-0.9c4.2-3.6,8.4-7.2,12.7-10.7c1.6-1.3,3.4-2.6,5.3-3.2c3.7-1.2,7.6-2.1,11.5-3
		c4.2-0.9,7.8-2.7,10.9-5.8c4-4.2,8.3-8.3,12.5-12.4c0.7-0.6,1.4-1.3,2.2-1.8c2.7-1.6,4.7-4,5.8-6.8c2-5.1,5.4-9.2,8.8-13.3
		c1.6-1.8,3.3-3.5,4.7-5.5c0.9-1.2,1.8-2.6,2.1-4.1c1.1-4.5,3.7-7.8,7.6-10.4c5.3-3.5,10.6-7.1,15.9-10.7c2.3-1.5,4-3.6,5.3-6.1
		c0.8-1.6,1.8-3.1,2.9-4.4c3.2-3.9,7.4-6.3,12.3-7.8c7.8-2.3,13.4-7.5,16.9-14.8c0.9-1.9,2.3-3.2,4-4.2c1.1-0.7,2.4-1.3,3.7-1.8
		c3.7-1.4,6.8-3.6,9.8-6.2c1.7-1.5,3.5-3,5.6-4.1c6.1-3.2,11.4-7.4,16.4-12.1c2.9-2.7,5.7-5.6,8.3-8.5
		C1000.7,132,1000.2,130.2,997.9,129.1"/>
	<path class="st0" d="M487.9,185.6c-1.7-4.2-3.3-8.3-3-13c0.2-3.2-0.1-6.5,0-9.7c0.1-2.6,0.2-5.3,0.8-7.8c1-4.5,2.4-8.9,3.7-13.3
		c0.6-2.1,0.5-4-0.9-5.6c-1.9-2.4-2.1-5-1.5-7.7c0.8-3.3,1.9-6.6,2.8-10c0.3-1.2,0.7-2.4,0.6-3.7c-0.1-2.1-0.9-4-3-4.8
		c-2.2-0.9-4.1-0.1-5.6,1.6c-1,1.2-2.1,2.4-2.7,3.8c-1,2.5-1.7,5.2-2.3,7.8c-1.3,5.2-2.4,10.3-3.6,15.5l-0.4,1.2
		c-2.5,3.8-3.3,8.1-3.9,12.5c-0.3,2.3-1.5,3.8-3.6,5c-3.1,1.8-6,4.2-8.6,6.7c-2.4,2.4-4.4,5.3-6.6,8c0.1-1.8,0-3.7,0.3-5.5
		c1.1-6.2,2.4-12.3,3.6-18.4c0.6-3.1,1.2-6.2,1.6-9.3c0.2-1.6,0.2-3.4-0.3-4.9c-0.6-1.9-1.7-3.7-4.1-3.8c-2.2-0.1-3.8,1.1-4.8,2.9
		c-0.4,0.6-0.7,1.3-1,2c-2.7,6.8-5.5,13.6-8.4,20.9c-1-4.4-2.8-7.7-7.8-6.5c-1.7-2.9-2.2-5.9-2.8-8.9c-0.5-2.3-1.6-4.3-3.2-6
		c-1.3-1.3-2.9-1.3-4.4-0.8c-1.5,0.6-2.6,1.7-2.6,3.6c0,1.6-0.2,3.1-0.4,4.7c-0.2,2.6-0.5,5.2-0.5,7.8c0,2.7,0.2,5.4,0.5,8.1
		c0.5,4-2,6.7-4.1,9.9c-1-2.1-2.1-3.8-2.7-5.7c-0.5-1.2-0.3-2.7-0.5-4c-0.5-2-1.1-4-1.6-6.1c-0.5-2.3-0.9-4.7-1.3-7
		c-0.2-1.1-0.1-2.3-0.3-3.4c-1-5.4-2.6-10.8-2.6-16.4c0-1.7-0.3-3.6-0.7-5.2c-0.5-1.9-1.9-2.9-3.4-2.6c-1.9,0.4-3.7,1.1-4.7,2.8
		c-1,1.8-2,3.7-2.7,5.6c-0.8,2.1-1.2,4.2-1.8,6.3c-0.4,1.5-1.2,2.4-2.9,2.3c-3-0.1-4.5,1.8-5.6,4.2c-0.8,1.7-1.3,3.5-2.2,5.2
		c-2.3,4.4-2.9,8.9-1,13.6c0.6,1.6,0.8,3.2,0.2,4.9c-2.1,5.7-3.1,11.8-6.5,17c-0.7,1-1.3,2.3-1.4,3.5c-0.2,2-0.6,4.5,0.3,6.1
		c1.7,2.7,2,5.4,1.9,8.3c0,0.6,0.1,1.3,0.2,1.9c0.5,1.9,2,3.3,3.7,3.4c1.8,0.1,2.9-0.8,3.6-3.2c0.5-1.7,1.1-3.3,2.5-4.6
		c1.6-1.5,1.9-3.6,1.1-5.5c-0.6-1.6-0.1-2.8,0.7-4.1c0.7-0.9,1.5-1.8,2-2.8c0.5-1,1.1-2.1,1-3.2c0-3.5,1.9-6,3.9-8.8
		c0.7,0.5,1.1,1.1,1.7,1.3c2.5,0.9,3.4,2.9,4.1,5.2c1,3.2,1.7,6.5,3,9.6c1.7,4.3,3.7,8.4,5.6,12.6l0.8,1c1,1.1,2.3,1.4,3.7,0.9
		c1.9-0.6,3.1-1.9,3.1-3.9c0-4.2-0.1-8.3-0.2-12.5c-0.1-2.3-0.2-4.7-0.3-7.4c2.2,1.2,3.1,2.5,2.9,4.5c-0.1,0.9,0.1,1.9-0.1,2.8
		c-0.6,3.6,1.8,5.6,4.1,7.5c0.9,0.7,2,0.8,2.9,0c2.2-2.1,4.4-4.2,4-7.7c-0.1-0.9-0.1-1.9,0.1-2.8c0.9-3.4,0.5-6.6-0.8-9.8
		c-0.4-1-0.6-2.1,0-3.3c1.5,1.4,3.1,2.4,4,3.8c2.2,3.3,4.1,6.8,6,10.2c1.5,2.7,2.8,5.6,4.3,8.4c0.8,1.4,1.9,2.6,3.7,2.4
		c1.8-0.2,3.1-1.2,3.6-3c0.3-1.2,0.8-2.3,1.2-3.6l0.4,0.4l0.1,0.9c0.3,4.3,2.6,6.9,6.5,8.3c1.4,0.5,2.7,1.1,4,1.8
		c5.1,2.9,10.9,1.8,14.6-2.7c0.6-0.7,1.1-1.4,1.9-2.5c0.3,1.6,0.6,2.8,0.9,4c0.6,3,2.1,5.5,4.2,7.5c2,1.9,4.8,2.1,7.2,0.5
		c2.1-1.4,3.2-3.2,2.9-5.8C490.9,194.3,489.7,189.9,487.9,185.6 M388.2,157.6c1.8-4.8,3.5-9.4,5.2-13.9l0.8,0.2
		c0,2.4-0.3,4.8,0.1,7.1c0.4,2.1,1.7,4.1,2.7,6.6L388.2,157.6L388.2,157.6z M469.8,181.3c-1.1,0.9-1.8,2.1-2.8,3
		c-1.7,1.7-3.9,1.4-4.2-0.8c-0.3-2,0.2-4.2,0.6-6.3c0.3-2,1.2-3.5,3.4-4.4c2-0.8,3.6-2.7,5.9-4.5
		C473.3,173.3,474.1,177.7,469.8,181.3"/>
	<path class="st0" d="M340.1,89c-2.2,0.4-4.6,0.6-6.7,1.4c-2.5,1-5,2.3-7.1,4c-6.4,4.9-12.6,10.1-18.8,15.2
		c-1.5,1.3-2.9,2.8-5.1,2.6c-1.9-0.2-3.5,0.6-4.9,1.7c-2.3,1.8-4.5,3.8-6.8,5.6c-1.1,0.8-2.2,1.6-3.4,2.1c-2.1,0.9-4.2,1.6-6.4,2.4
		c-1.4-2.5-1.6-5.2-0.1-7.9c0.6-1.1,1.1-2.3,1.3-3.5c0.6-3.6,1.4-7.2-0.7-10.7c-0.6-1-0.4-2.6-0.5-4c-0.1-1.8,0.2-3.8-0.5-5.2
		c-1.2-2.5-0.8-4.6,0-6.9c0.3-0.9,0.6-1.8,0.9-2.7c1.1-4,1.4-8,0.6-12.1c-0.9-4.5-4.8-5.9-8.5-3.1c-0.7,0.5-1.3,1-1.9,1.5
		c-3.7-0.9-4.4-0.8-6,1.6c-0.7,1.1-1.3,2.4-1.4,3.7c-0.2,1.9,0.1,3.8,0,5.6c-0.1,5.8,0.4,11.8-0.6,17.5c-1.3,7.4-2.9,14.8-5.7,21.8
		c-0.8,2.1-1.1,4.5-1.6,6.7c-0.5,2.1-0.8,4.3-1.5,6.4c-1,3.3-2.3,6.5-3.3,9.8c-0.3,1.2-0.4,2.5-0.2,3.7c0.3,2,1.5,3.5,3.4,4.1
		c1.8,0.6,3-0.3,4.1-1.6c1.3-1.5,2.5-3.1,3.8-4.6c0.6-0.6,1.2-1.2,1.8-1.8l0.7,0.4c-0.4,1.8-0.9,3.6-1.3,5.3c-0.3,1.3-0.7,2.6-0.7,4
		c-0.1,4.9-0.8,9.5-3.4,13.8c-1.1,1.8-1.7,4.2,0.1,5.8c2,1.7,1.8,3.6,1.4,5.7c-1.2,6.5-2.3,13-3.6,19.4c-0.2,1.1-0.6,2.2-1,3.3
		c-1.7,3.5-2.3,7.3-3.1,11.1c-0.9,4.1,1,6.6,3.4,9.2c1.5,1.6,2.9,1.7,4.4,0.2c1.4-1.5,2.9-3.2,3.5-5.1c1.2-3.9,2.6-7.7,4.3-11.4
		c0.4-0.9,0.7-2,0.9-3c0.9-4,1.7-8,2.5-12c0.8-3.8,1.6-7.5,2.5-11.8c3.3,1.6,4.9-0.6,6.7-2.7c0.4-0.5,1.1-0.7,1.9-1.1
		c0.7,1.9,1.1,3.6,1.9,4.9c0.9,1.4,2.3,2.4,3.5,3.5l0.7,1c2.6,4.9,5.6,9.7,5.9,15.4c0.2,3.5,2,6.1,4.6,8.2c3.1,2.5,4.9,5.8,5.6,9.5
		c1.1,5.1,3.6,9.3,6.7,13.3c1.4,1.8,2,3.6,2.2,5.7c0.2,1.7,0.4,3.6,1.1,5.2c1.3,2.6,2.3,5.1,2.5,8c0.1,2.1,1.8,3.4,3.8,3.4
		c2.2,0,3.3-0.9,3.8-3.3c0.1-0.4,0.1-0.8,0.2-1.4c3.1,0.1,4.7-0.8,5.1-3.2c0.5-3.3,0.9-6.6-0.4-9.9c-0.6-1.6-1.1-3.2-1.6-4.7
		c-3.1-9.3-6-18.7-6.5-28.7c-0.1-2.4-1.4-4.8-2.7-6.9c-2.2-3.5-3.9-7-4.6-11.2c-0.9-5.6-3.2-7.6-8.8-8.5c-2.1-0.4-4-1-5.4-2.9
		c-3-4.3-6.1-8.5-9.2-12.7c-0.4-0.6-0.8-1.3-1.1-1.9c-1-1.7-2-3.4-3.1-5.1c-2.2-3.3-1-7.2,2.8-8.7c2.3-0.9,4.7-1.7,7-2.6
		c6.7-2.6,11.3-6.9,13-14.1c1-4.2,3.2-7.7,7.5-9.4c0.9-0.3,1.7-0.9,2.5-1.3c4.4-2,7.5-5.3,9.5-9.6c0.8-1.7,2.1-2.7,3.5-3.9
		c2.9-2.5,5.7-5.3,8.4-8c0.8-0.8,1.4-1.9,0.7-3.1C342.4,89.3,341.4,88.8,340.1,89"/>
	<path class="st0" d="M807.9,224.9c1-1.4,1.4-3.1,0.9-4.8c-0.8-2.7-1.7-5.4-2.8-7.9c-1.8-4.2-2.8-8.4-2.1-13.1
		c1.2-7.4-0.5-14.5-5-20.5c-1.9-2.6-2.6-5-2.2-8.1c0.3-1.9,0.3-4-0.9-5.8c-2.6-4.2-5.1-8.4-9.7-10.9c-1.6-0.9-1.5-2.8,0-3.8
		c1-0.6,2.1-1,3.1-1.5c1.8-1,3.7-1.9,5.4-3.2c2-1.6,4.2-2.7,6.7-3.2c1-0.2,1.9-0.7,2.8-1.2c3.1-1.6,5.1-4.3,6.8-7.2
		c1-1.7,1.4-3.5,1.2-5.4c-0.1-1.2-0.2-2.5-0.5-3.7c-0.5-1.7-0.8-3.6-1.9-4.8c-2.1-2.3-3.4-5-5.1-7.5c-1-1.5-1.4-2.7-0.3-4.5
		c1.6-2.6,1-4.9-1.3-7c-2.5-2.3-5.3-3.3-8.6-2.6c-2.8,0.6-5.4,0-7.9-1.3c-3.9-2-6.4-1.8-9.2,1.4c-2.9,3.3-5.5,6.9-8.2,10.3
		c-0.4,0.5-0.8,1.1-1.3,1.8c-1.6-1.5-1.5-3.3-1.7-5c-0.5-3.8-0.9-7.7-1.6-11.5c-0.5-2.2-2-3.2-3.7-3.2c-1.9,0-3.7,1.3-4.3,3.5
		c-0.2,0.9-0.1,1.8-0.2,2.7c-0.1,2.7,0,5.4-0.3,8.1c-0.5,5.2-1.7,10.3-1.8,15.5c-0.1,5.7-1,11.2-2.2,16.8c-0.4,1.9-0.2,3.9-0.1,5.9
		c0.2,2.5,1.7,4.2,3.8,5.4c2.7,1.5,3.3,3.3,2.2,6.2c-0.6,1.7-1.5,3.2-2.2,4.9c-1.1,2.8-1.3,5.8,0.2,8.5c1.7,3,1.7,5.8,0.8,9
		c-0.7,2.5-1,5.4-0.7,8c0.4,3.4,0.5,6.7,0.1,10c-0.2,1.3-0.3,2.7-0.2,4.1c0.1,1.1,0.6,2.3,1.3,3c2.7,2.9,6.9,2.2,8.5-1.5
		c0.9-2.2,1.2-4.7,1.3-7c0.1-3.6,0.8-7,2.3-10.3c1.1-2.4,1.5-5.2,2-7.8c0.3-1.6,0.2-3.3,0.3-4.4c0.7,0.6,1.7,1.2,2.6,1.9
		c4.2,3.2,7.3,7.4,9.9,12c1,1.7,2.1,3.4,3.5,4.8c3,2.9,4.1,6.4,3.9,10.5c-0.1,2-0.1,4.1,0.6,5.9c1.3,3.5,2.2,7,2.9,10.6
		c0.7,3.3,1.9,6.4,4.5,8.8C802.1,228.2,805.8,227.8,807.9,224.9 M783.6,134c-0.8,1.5-2.1,2.7-3.3,4.2c-0.7-0.5-1.4-0.7-1.7-1.2
		c-1.2-2.1-2.7-3.9-4.5-5.5c-0.7-0.6-0.7-1.9-1.1-3.2c3.3-0.8,5.1-2.5,6.2-5.2c1.9-4.6,2.9-5.1,9.2-4.5c-4.6,3.1-4.6,6.8-3.6,11
		C785,131,784.3,132.7,783.6,134"/>
	<path class="st0" d="M808.8,149.7c-2.4,0.6-3.4,2.3-2.9,4.7c0.5,2.8,2.2,4.3,5,4.1c2.4-0.2,4.4,0.7,6.6,1.5
		c3.3,1.2,5.7,4.3,9.8,3.8c-0.3,0.8-0.3,1.3-0.6,1.8c-1.6,2.8-2.2,5.8-2.3,9c0,1.5-0.8,3-1.5,4.3c-1,1.8-1.4,3.5-0.8,5.4
		c0.4,1.5,0.9,3,1.7,4.4c0.9,1.6,1,2.9,0.2,4.7c-1.7,3.7-2.1,7.6,0,11.5c0.3,0.6,0.6,1.4,0.6,2.1c-0.2,4.5,0.1,9.1-1,13.4
		c-1.6,5.9-1.7,11.8-1.6,17.7c0.1,2.7,0.6,5.4,2.3,7.7c1.6,2.1,3.7,2,5-0.4c0.3-0.5,0.5-1.2,0.7-1.8c0.9-3,1.8-6,2.7-9
		c0.5-1.6,1.1-3.2,1.3-4.8c0.8-7,1.6-14.1,2.3-21.2c0.4-3.9,1-7.7,3.3-11c0.5-0.7,1-1.7,1.1-2.6c0.2-3,0.6-6.1-0.5-9
		c-0.5-1.3-0.5-2.6,0.3-3.9c2.1-3.8,2.4-7.9,1.8-12.2c-0.2-1.9-0.2-3.9-0.3-5.9l0.8-0.6c1.1,0.5,2.4,0.8,3.2,1.6
		c3.6,3.3,8,3.6,12.3,3c2.4-0.4,4.2,0,6.1,1.4c2.4,1.8,5.2,2.8,8.2,2.9c4.2,0.1,5.9-1.3,6-5.4c0.9-0.6,1.8-1.2,2.5-1.8
		c2.2-1.9,2.4-4.2,0.3-6.3c-1-1-2.3-1.9-3.6-2.4c-1.7-0.7-3.6-1-5.5-1.3c-1.3-0.2-2.3-0.6-3.2-1.7c-1.7-2-4-3-6.6-3c-2,0-4,0-6,0
		c-2.7-3.7-3.5-3.9-8.4-3.3c-2.1,0.3-4.3,0.8-6.8-0.3c0.5-1.6,0.8-3.3,1.5-4.7c2.1-4.4,3.5-9,4.3-13.7c0.9-5.2,1.9-10.3,4.4-15
		l0.2-0.6c0.5-3.6,0.7-7.1-2.5-9.8c-2.5-2.2-2.5-2.7-0.9-5.6c1.7-2.9,3.5-5.7,5-8.7c0.9-1.7,1.7-3.7,1.9-5.6c0.4-3.8-2.2-6-6.1-5.4
		c-3.4,0.5-5.5,2.8-6.9,5.8c-1,2.2-2,4.3-3.1,6.5c-2.7,5.5-5.5,11-6.3,17.3c-0.3,2.2-1.1,4.4-1.9,6.6c-1.2,3.4-2.1,6.8-2.1,10.4
		c0,2.5-0.5,4.7-1.6,7c-1.5,3-1.9,6.1-1.2,9.5c0.7,3.7-0.4,5.1-4.2,5.1c-2,0-4,0.2-5.6,1.6c-1.4,1.2-3.1,1.7-4.9,1.8
		C810.5,149.3,809.6,149.4,808.8,149.7"/>
	<path class="st0" d="M240.8,176c-3.7,2.7-6.2,2.7-10,0.1c-1.1-0.8-2.2-1.6-3.3-2.4c-2-1.3-4.1-1.8-6.1-0.1c-1.2,1-2.5,1-3.8,0.3
		c-2.2-1.1-4.3-0.7-6.2,0.5c-1.5,0.9-2.9,2.1-4.4,3c-2.1,1.2-4.1,0.1-4.1-2.3c0-0.8,0.1-1.7,0.5-2.4c0.7-1.5,1.5-3,2.3-4.4
		c1-1.8,2.3-3.5,3.2-5.4c1.9-4.4,1.2-6.5-2.6-9.1c-0.4-0.3-0.9-0.6-1.6-1c0.5-4,3.1-6.4,5.9-8.7c3.7-3.1,7.4-6.1,11-9.4
		c2-1.8,3.3-4.1,1.9-6.9c2-1.2,4-1.7,6.1-1.7c1.8,0,3.6,0,5.3-0.1c4.5-0.2,8.4-1.6,11.2-5.4c1.2-1.6,1.7-3.4,0.7-5.3
		c-0.9-1.7-2.4-2.5-4.4-2.4c-3.4,0.1-6.9,0.2-10.3,0.5c-1.6,0.1-2.8,0.2-3.9-1.2c-1.2-1.5-2.9-1.9-4.8-1.8c-4.7,0.3-9,1.9-12.6,4.9
		c-1.1,0.9-2.2,2.5-2.4,3.8c-0.4,3.5-2.4,5.1-5.6,5.7l-1.5,0.5c-6.3,1.8-8.3,4.3-9.2,10.7c-0.4,2.7-0.7,5.5-1.9,7.8
		c-1.7,3.2-2.7,6.5-2.9,10.1c-0.1,2.4-1,4.4-2.7,6.2c-1.1,1.2-2.4,2.4-3.2,3.9c-1,1.9-1.8,4-2.2,6.1c-0.4,2.6,1.3,4.3,3.9,4.5
		c0.5,0,0.9,0,1.7,0c-0.7,1.2-1.4,2-1.7,2.9c-0.6,1.9-1.4,3.8-1.5,5.7c-0.3,3,1.2,4.4,4.2,4.6c1.5,0.1,2.9,0.1,4.4,0.1
		c3,0.1,4,1.1,3.4,4.1c-0.5,2.8,0,5.1,2.3,6.7c2.1,1.5,2.5,3.4,2.6,5.6c0,1.5,0.2,2.9,0.6,4.3c0.3,1,0.9,2.1,1.7,2.9
		c1.3,1.4,3.1,1.6,4.5,0.3c1.2-1.1,2.3-2.5,3-3.9c1.2-2.2,2-4.6,3.2-6.8c0.9-1.7,2-3.4,3.3-4.9c1.1-1.3,2.5-1.9,4.5-1.2
		c1.2,0.5,2.9,0.2,4.2-0.3c1.5-0.6,3-1.6,4.2-2.7c2.1-1.9,4.4-2.5,7.2-2c6.5,1.1,12.4-3.2,13.4-9.7c0.2-1.3-0.1-3-0.7-4.1
		C246.1,173.9,243.7,173.9,240.8,176"/>
	<path class="st0" d="M741,158.8c-2.3-2.8-2.9-5.4-1.3-8.6c1-2.1,2-4.2,2.6-6.4c1.5-5.4,1.4-10.7-1.3-15.8c-0.6-1.1-0.8-2.4-1-3.6
		c-0.3-2.6-1.2-4.7-3.1-6.6c-3.4-3.3-7.1-6.1-11.6-7.7c-6.3-2.2-12.1-1.5-17,3c-3.1,2.9-5.5,6.5-8.3,9.8c-0.9,1-1.8,2-2.9,2.7
		c-4.9,3.1-8.7,7-9.6,12.9c-0.6,3.5-1.8,6.5-4.1,9.3c-3,3.6-3.3,8.9-0.7,12.3c3.4,4.4,4,9.3,3.3,14.5c-0.3,2.1-0.4,4.2-0.6,6.7
		c0.3,1.9,0.3,4.2,1,6.4c0.7,2.5,2.7,3.8,5,3.3c2.6-0.7,4.4,0.5,6.4,1.8c1.6,1,3.2,1.9,4.9,2.6c1,0.4,1.7,0.9,2.2,1.9
		c1.7,3.3,3.7,4.4,7.4,3.7c2.8-0.6,5.6-1.6,8.6-1.1c0.7,0.1,1.5-0.1,2.1-0.5c3-1.8,6.5-3.2,9-5.7c4.3-4.4,8.3-9.2,11.9-14.2
		c2.1-3,3.7-6.5,2.7-10.6C745.5,165,743.4,161.8,741,158.8 M718.1,169.5c1.5,3.2,1.4,3.3,1.1,6.4c-1.9,0.2-4,0.4-5.8,0.5
		c-1.5-2.3-2.8-4.4-4.2-6.5c-1.1-1.7-2.6-3.1-4.8-3c-1.6,0.1-2.2-0.9-2.5-2.2c-0.3-1.4-0.5-2.9-0.8-4.3c-0.8-4,0.1-7.5,3.2-10.3
		c3-2.7,4.2-5.7,3.5-9.8c-0.5-3.2,1.7-5.1,4.4-6.4c-0.5,2-1,4-1.4,6c-0.8,4.1,0.9,7.1,4.2,9.4c0.8,0.5,1.6,0.9,2.4,1.5
		c2,1.4,2.4,2.5,1.6,4.8c-0.4,1.1-0.9,2.1-1.3,3.2C716.4,162.4,716.4,165.9,718.1,169.5"/>
	<path class="st0" d="M166.1,141.5c-0.1-3.9,0.6-7.7,1.9-11.4c1-2.7,1.6-5.6,0.3-8.3c-1.5-3-1.8-5.9-1.2-9.1v-1.3
		c-0.2-2.4-1.3-3.6-3.7-3.8c-2.2-0.2-4.1,0.3-6,1.5c-0.6,0.4-1.5,0.8-2.2,0.8c-3.8-0.2-5.2,0.8-4.7,4.5c0.5,4,0,7.7-1.3,11.4
		c-0.2,0.6-0.3,1.2-0.4,1.8c-0.5,2.3-0.2,4.2,2.2,5.2c1.5,0.7,1.9,2,1.6,3.4c-0.2,1.3-0.8,2.6-1.3,3.8c-0.8,2.1-1.9,4.2-2.6,6.4
		c-1.2,3.6-0.8,6.8,2.4,9.3c1.3,1,1.9,2.2,1.8,3.8c-0.1,3.1-0.1,6.3-0.6,9.3c-0.3,2.1-0.7,4.2,0.3,6.1c0.9,1.8,1,3.6,0.6,5.5
		c-0.5,2.3-0.1,4.4,1.2,6.3c1.2,1.7,1.6,3.6,1.5,5.7c0,1.9,0,3.8,0,5.7h-0.1c0,2.2-0.1,4.4,0,6.6c0.1,2.7,0.7,5.2,2.6,7.2
		c2.1,2.2,4.7,1.9,6.3-0.6c0.4-0.7,0.8-1.5,0.9-2.3c0.3-2.5,0.7-5,0.5-7.5c-0.4-6,0.2-11.7,3.1-17c0.5-0.9,0.6-2,1-3
		c1.6-4.1,1.1-8-0.9-11.8l-0.3-0.6c-1-2-1-4,0.3-6c1-1.6,1.8-3.3,2.8-4.9c2.4-3.5,2.1-8-2.6-10.7
		C166.8,146.2,166.2,144.1,166.1,141.5"/>
	<path class="st0" d="M154.1,96.4c2.4,2,5.3,2.7,8.2,1.7c3-1.1,4.5-3.6,4.7-6.8c0.3-4.3,0.9-8.5,2-12.7c1.1-4.5-1.6-7.3-6.7-6.6
		c0.3-1.5,0.5-2.7,0.7-3.9c0.4-3.6-2.2-7-5.4-6.6c-2.4,0.3-4.7,1.2-6.4,3.1c-1.9,2.1-2.6,5.4-1,7.8c1.4,2.1,1,3.8-0.1,5.8
		c-1.1,2-2.1,4.1-2.8,6.3c-0.9,3-0.5,5.8,1.9,8C150.8,93.8,152.5,95.1,154.1,96.4"/>
	<polyline class="st0" points="867.4,262.6 867.4,263.2 865.7,263.2 865.7,267.7 865,267.7 865,263.2 863.3,263.2 863.3,262.6 	"/>
	<polyline class="st0" points="867.9,262.6 868.9,262.6 870.4,266.9 871.8,262.6 872.8,262.6 872.8,267.7 872.2,267.7 872.2,264.8 
		872.2,264.2 872.2,263.4 870.7,267.7 870,267.7 868.5,263.4 868.5,263.6 868.5,264.2 868.5,267.7 867.9,267.7 	"/>
</g>
</svg>
